<svg xmlns="http://www.w3.org/2000/svg" width="274.652" height="50" viewBox="0 0 274.652 50">
  <g id="Grupo_3444" data-name="Grupo 3444" transform="translate(-462.395 -254.1)">
    <path id="Caminho_2" data-name="Caminho 2" d="M13.61-135.092H24.072L36.958-99.354h-8.7l-3.194-9.416H12.013L8.874-99.354H.394ZM23.191-114.5l-4.515-13.436h-.22L13.94-114.5Zm17.621-23.4h8.04v38.546h-8.04ZM56.12-126.006h7.6v2.643a4.341,4.341,0,0,1,2.808-2.478,20.4,20.4,0,0,1,6.222-.716,22.966,22.966,0,0,1,5.589.551,6.4,6.4,0,0,1,3.221,1.762,6.65,6.65,0,0,1,1.432,2.671,16.31,16.31,0,0,1,.385,3.992v8.755a13.107,13.107,0,0,1-1.156,6.112,6.383,6.383,0,0,1-3.552,3.029,19.466,19.466,0,0,1-6.525.881,17.79,17.79,0,0,1-5.727-.661,3.523,3.523,0,0,1-2.258-2.588V-87.9H56.12Zm13.546,22.191a14.537,14.537,0,0,0,3.579-.33A2.487,2.487,0,0,0,74.9-105.3a5.435,5.435,0,0,0,.441-2.478v-9.857a6.453,6.453,0,0,0-.385-2.616,2.124,2.124,0,0,0-1.542-1.074,18.343,18.343,0,0,0-3.8-.275,11.736,11.736,0,0,0-3.442.385,2.544,2.544,0,0,0-1.6,1.211,5.425,5.425,0,0,0-.413,2.368v9.857a5.752,5.752,0,0,0,.413,2.478,2.355,2.355,0,0,0,1.569,1.156A13.84,13.84,0,0,0,69.667-103.814ZM89.655-137.9h8.04v15.143q.771-3.8,8.425-3.8,5.121,0,7.186,1.845t2.065,5.809v19.548h-8.04v-18.612a6.437,6.437,0,0,0-.3-2.285,1.837,1.837,0,0,0-1.184-1.046,9.4,9.4,0,0,0-2.808-.3,15.7,15.7,0,0,0-3.469.275,2.138,2.138,0,0,0-1.487,1.019,5.341,5.341,0,0,0-.385,2.34v18.612h-8.04Zm40.308,39.1a17,17,0,0,1-5.589-.688,4.317,4.317,0,0,1-2.588-2.478,14.734,14.734,0,0,1-.743-5.369,12.748,12.748,0,0,1,.8-5.011,4.941,4.941,0,0,1,2.588-2.616,12.363,12.363,0,0,1,4.928-.8h9.031v-1.817a5.306,5.306,0,0,0-.468-2.533,2.61,2.61,0,0,0-1.707-1.156,15.511,15.511,0,0,0-3.717-.33,89.929,89.929,0,0,0-9.361.661v-5.066a82.252,82.252,0,0,1,10.187-.551,31.182,31.182,0,0,1,7.9.771,6.614,6.614,0,0,1,3.992,2.643,10.083,10.083,0,0,1,1.211,5.452v18.337h-7.874v-2.423a5.2,5.2,0,0,1-2.533,2.258Q134.424-98.8,129.963-98.8Zm3.139-5.011a25.184,25.184,0,0,0,3.469-.165,2.542,2.542,0,0,0,1.074-.33,1.728,1.728,0,0,0,.523-.716,2.39,2.39,0,0,0,.22-1.156v-5.176h-5.507a9.717,9.717,0,0,0-2.643.248,1.57,1.57,0,0,0-1.046.991,8.5,8.5,0,0,0-.275,2.616,7.958,7.958,0,0,0,.275,2.533,1.5,1.5,0,0,0,1.074.936A12.276,12.276,0,0,0,133.1-103.814Z" transform="translate(462 392)" fill="#0092f6"/>
    <path id="Caminho_1" data-name="Caminho 1" d="M20.167-137.9l-.055,29.846a2.534,2.534,0,0,0,.826,2.065,3.7,3.7,0,0,0,2.423.688h2.2l.936,5.507a7.854,7.854,0,0,1-1.872.578q-1.211.248-2.478.385A20.385,20.385,0,0,1,20-98.693a8.418,8.418,0,0,1-5.837-1.927,6.877,6.877,0,0,1-2.148-5.4V-137.9ZM43.625-98.8q-14.152,0-14.152-8.645v-9.581q0-5.011,3.221-7.269t9.939-2.258q6.333,0,9.279,2.175t2.946,7.351v6.5H37.567v2.423a3.547,3.547,0,0,0,1.652,3.3q1.652.991,5.947.991a39.66,39.66,0,0,0,8.921-1.156v5.121A50.048,50.048,0,0,1,43.625-98.8ZM47.2-115.1v-3.855a2.176,2.176,0,0,0-1.074-1.982,7.248,7.248,0,0,0-3.607-.661,7.8,7.8,0,0,0-3.91.661,2.273,2.273,0,0,0-1.046,1.982v3.855Zm13.821-10.9h8.04v3.249q.771-3.8,7.874-3.8a13.091,13.091,0,0,1,5.672.964,4.937,4.937,0,0,1,2.588,3,4.857,4.857,0,0,1,2.561-3.029,13.571,13.571,0,0,1,5.754-.936,14.091,14.091,0,0,1,5.341.8,4.775,4.775,0,0,1,2.616,2.45,10.882,10.882,0,0,1,.743,4.405v19.548h-8.04V-117.8a9.889,9.889,0,0,0-.22-2.505,1.489,1.489,0,0,0-.964-1.019,8.241,8.241,0,0,0-2.561-.275,13.123,13.123,0,0,0-3.221.275,1.786,1.786,0,0,0-1.267,1.019,7.306,7.306,0,0,0-.3,2.505v18.447H77.6V-117.8a9.889,9.889,0,0,0-.22-2.505,1.489,1.489,0,0,0-.964-1.019,8.241,8.241,0,0,0-2.561-.275,13.123,13.123,0,0,0-3.221.275,1.786,1.786,0,0,0-1.267,1.019,7.306,7.306,0,0,0-.3,2.505v18.447h-8.04Zm61.618,27.2q-14.152,0-14.152-8.645v-9.581q0-5.011,3.221-7.269t9.939-2.258q6.333,0,9.279,2.175t2.946,7.351v6.5H116.587v2.423a3.547,3.547,0,0,0,1.652,3.3q1.652.991,5.947.991a39.66,39.66,0,0,0,8.921-1.156v5.121A50.048,50.048,0,0,1,122.644-98.8Zm3.579-16.3v-3.855a2.176,2.176,0,0,0-1.074-1.982,7.248,7.248,0,0,0-3.607-.661,7.8,7.8,0,0,0-3.91.661,2.273,2.273,0,0,0-1.046,1.982v3.855Z" transform="translate(603.17 392)" fill="#0092f6"/>
  </g>
</svg>
