<svg xmlns="http://www.w3.org/2000/svg" xmlns:xlink="http://www.w3.org/1999/xlink" width="599" height="150" viewBox="0 0 599 150">
  <defs>
    <filter id="Caminho_2" x="-50" y="-49" width="442.069" height="250" filterUnits="userSpaceOnUse">
      <feOffset input="SourceAlpha"/>
      <feGaussianBlur stdDeviation="25" result="blur"/>
      <feFlood flood-color="#fff"/>
      <feComposite operator="in" in2="blur"/>
      <feComposite in="SourceGraphic"/>
    </filter>
    <filter id="Caminho_1" x="255.587" y="-49" width="393.722" height="228.414" filterUnits="userSpaceOnUse">
      <feOffset input="SourceAlpha"/>
      <feGaussianBlur stdDeviation="25" result="blur-2"/>
      <feFlood flood-color="#fff"/>
      <feComposite operator="in" in2="blur-2"/>
      <feComposite in="SourceGraphic"/>
    </filter>
    <clipPath id="clip-Prancheta_1">
      <rect width="599" height="150"/>
    </clipPath>
  </defs>
  <g id="Prancheta_1" data-name="Prancheta – 1" clip-path="url(#clip-Prancheta_1)">
    <rect width="599" height="150" fill="#fff"/>
    <g id="Grupo_3426" data-name="Grupo 3426" transform="translate(-437.394 -228.1)">
      <g transform="matrix(1, 0, 0, 1, 437.39, 228.1)" filter="url(#Caminho_2)">
        <path id="Caminho_2-2" data-name="Caminho 2" d="M26.826-132.283H47.751L73.521-60.808h-17.4L49.733-79.64h-26.1L17.354-60.808H.394ZM45.989-91.094l-9.031-26.872h-.441L27.486-91.094ZM81.231-137.9H97.31v77.092H81.231Zm30.617,23.788h15.2v5.286a8.682,8.682,0,0,1,5.617-4.956q4.185-1.432,12.445-1.432a45.931,45.931,0,0,1,11.178,1.1,12.809,12.809,0,0,1,6.443,3.524,13.3,13.3,0,0,1,2.863,5.341,32.62,32.62,0,0,1,.771,7.985V-79.75q0,7.93-2.313,12.225a12.766,12.766,0,0,1-7.1,6.057q-4.791,1.762-13.051,1.762-7.929,0-11.454-1.322a7.046,7.046,0,0,1-4.515-5.176v28.3H111.847ZM138.94-69.728a29.075,29.075,0,0,0,7.159-.661,4.974,4.974,0,0,0,3.3-2.313,10.87,10.87,0,0,0,.881-4.956V-97.372a12.906,12.906,0,0,0-.771-5.231,4.247,4.247,0,0,0-3.084-2.148,36.686,36.686,0,0,0-7.6-.551,23.473,23.473,0,0,0-6.883.771,5.089,5.089,0,0,0-3.194,2.423,10.851,10.851,0,0,0-.826,4.736v19.714a11.5,11.5,0,0,0,.826,4.956,4.709,4.709,0,0,0,3.139,2.313A27.68,27.68,0,0,0,138.94-69.728ZM178.918-137.9H195v30.286q1.542-7.6,16.85-7.6,10.242,0,14.372,3.689t4.13,11.619v39.1H214.27V-98.032a12.875,12.875,0,0,0-.606-4.57A3.673,3.673,0,0,0,211.3-104.7a18.8,18.8,0,0,0-5.617-.606,31.4,31.4,0,0,0-6.938.551,4.275,4.275,0,0,0-2.974,2.037A10.682,10.682,0,0,0,195-98.032v37.225H178.918Zm80.616,78.194q-7.489,0-11.178-1.377a8.634,8.634,0,0,1-5.176-4.956q-1.487-3.579-1.487-10.738,0-6.388,1.6-10.022a9.883,9.883,0,0,1,5.176-5.231,24.726,24.726,0,0,1,9.857-1.6h18.062v-3.634a10.611,10.611,0,0,0-.936-5.066,5.22,5.22,0,0,0-3.414-2.313,31.024,31.024,0,0,0-7.434-.661,179.853,179.853,0,0,0-18.722,1.322v-10.132a164.5,164.5,0,0,1,20.374-1.1q10.242,0,15.8,1.542t7.985,5.286q2.423,3.744,2.423,10.9v36.674H276.715v-4.846a10.394,10.394,0,0,1-5.066,4.515Q268.455-59.706,259.534-59.706Zm6.277-10.022a50.368,50.368,0,0,0,6.938-.33,5.083,5.083,0,0,0,2.148-.661,3.456,3.456,0,0,0,1.046-1.432,4.78,4.78,0,0,0,.441-2.313V-84.817H265.371a19.435,19.435,0,0,0-5.286.5,3.14,3.14,0,0,0-2.093,1.982,16.991,16.991,0,0,0-.551,5.231,15.916,15.916,0,0,0,.551,5.066,3.007,3.007,0,0,0,2.148,1.872A24.552,24.552,0,0,0,265.811-69.728Z" transform="translate(24.61 163.9)" fill="#073358"/>
      </g>
      <g transform="matrix(1, 0, 0, 1, 437.39, 228.1)" filter="url(#Caminho_1)">
        <path id="Caminho_1-2" data-name="Caminho 1" d="M28.316-137.9l-.11,59.691a5.069,5.069,0,0,0,1.652,4.13A7.4,7.4,0,0,0,34.7-72.7h4.405l1.872,11.013a15.707,15.707,0,0,1-3.744,1.156q-2.423.5-4.956.771a40.767,40.767,0,0,1-4.3.275q-7.379,0-11.674-3.855t-4.3-10.793V-137.9ZM75.233-59.706q-28.3,0-28.3-17.291V-96.16q0-10.022,6.443-14.537t19.879-4.515q12.665,0,18.557,4.35T97.7-96.16v13H63.118v4.846q0,4.626,3.3,6.608t11.894,1.982a79.321,79.321,0,0,0,17.841-2.313V-61.8A100.1,100.1,0,0,1,75.233-59.706Zm7.159-32.6v-7.709a4.351,4.351,0,0,0-2.148-3.965Q78.1-105.3,73.03-105.3q-5.837,0-7.819,1.322a4.545,4.545,0,0,0-2.093,3.965v7.709Zm27.643-21.806h16.079v6.5q1.542-7.6,15.749-7.6,7.489,0,11.344,1.927a9.874,9.874,0,0,1,5.176,6,9.714,9.714,0,0,1,5.121-6.057q3.8-1.872,11.509-1.872,6.938,0,10.683,1.6a9.55,9.55,0,0,1,5.231,4.9,21.764,21.764,0,0,1,1.487,8.811v39.1H176.334V-97.7a19.778,19.778,0,0,0-.441-5.011,2.978,2.978,0,0,0-1.927-2.037,16.481,16.481,0,0,0-5.121-.551,26.245,26.245,0,0,0-6.443.551,3.573,3.573,0,0,0-2.533,2.037,14.612,14.612,0,0,0-.606,5.011v36.894H143.184V-97.7a19.779,19.779,0,0,0-.441-5.011,2.978,2.978,0,0,0-1.927-2.037,16.481,16.481,0,0,0-5.121-.551,26.245,26.245,0,0,0-6.443.551,3.573,3.573,0,0,0-2.533,2.037,14.612,14.612,0,0,0-.606,5.011v36.894H110.034ZM233.272-59.706q-28.3,0-28.3-17.291V-96.16q0-10.022,6.443-14.537t19.879-4.515q12.665,0,18.557,4.35t5.892,14.7v13H221.157v4.846q0,4.626,3.3,6.608t11.894,1.982A79.321,79.321,0,0,0,254.2-72.041V-61.8A100.1,100.1,0,0,1,233.272-59.706Zm7.159-32.6v-7.709a4.351,4.351,0,0,0-2.148-3.965q-2.148-1.322-7.214-1.322-5.837,0-7.819,1.322a4.545,4.545,0,0,0-2.092,3.965v7.709Z" transform="translate(318.57 163.9)" fill="#0092f6"/>
      </g>
    </g>
  </g>
</svg>
