<svg xmlns="http://www.w3.org/2000/svg" width="331.027" height="723.97" viewBox="0 0 331.027 723.97">
  <g id="Grupo_296" data-name="Grupo 296" transform="translate(872.659 -148.69) rotate(90)">
    <rect id="Retângulo_8894" data-name="Retângulo 8894" width="78.588" height="78.588" transform="translate(157.027 549.969)" fill="none" stroke="#0092f6" stroke-width="2.5" opacity="0.15"/>
    <circle id="Elipse_211" data-name="Elipse 211" cx="8.337" cy="8.337" r="8.337" transform="translate(148.69 541.632)" fill="#0092f6"/>
    <rect id="Retângulo_8895" data-name="Retângulo 8895" width="78.588" height="78.588" transform="translate(235.615 549.969)" fill="none" stroke="#0092f6" stroke-width="2.5" opacity="0.15"/>
    <circle id="Elipse_212" data-name="Elipse 212" cx="8.337" cy="8.337" r="8.337" transform="translate(227.278 541.632)" fill="#0092f6"/>
    <rect id="Retângulo_8896" data-name="Retângulo 8896" width="78.588" height="78.588" transform="translate(314.204 549.969)" fill="none" stroke="#0092f6" stroke-width="2.5" opacity="0.15"/>
    <circle id="Elipse_213" data-name="Elipse 213" cx="8.337" cy="8.337" r="8.337" transform="translate(305.867 541.632)" fill="#0092f6"/>
    <rect id="Retângulo_8897" data-name="Retângulo 8897" width="78.588" height="78.588" transform="translate(392.792 549.969)" fill="none" stroke="#0092f6" stroke-width="2.5" opacity="0.15"/>
    <circle id="Elipse_214" data-name="Elipse 214" cx="8.337" cy="8.337" r="8.337" transform="translate(384.455 541.632)" fill="#0092f6"/>
    <rect id="Retângulo_8898" data-name="Retângulo 8898" width="78.588" height="78.588" transform="translate(471.381 549.969)" fill="none" stroke="#0092f6" stroke-width="2.5" opacity="0.15"/>
    <circle id="Elipse_215" data-name="Elipse 215" cx="8.337" cy="8.337" r="8.337" transform="translate(463.044 541.632)" fill="#0092f6"/>
    <rect id="Retângulo_8899" data-name="Retângulo 8899" width="78.588" height="78.588" transform="translate(549.969 549.969)" fill="none" stroke="#0092f6" stroke-width="2.5" opacity="0.15"/>
    <circle id="Elipse_216" data-name="Elipse 216" cx="8.337" cy="8.337" r="8.337" transform="translate(541.632 541.632)" fill="#0092f6"/>
    <rect id="Retângulo_8900" data-name="Retângulo 8900" width="78.588" height="78.588" transform="translate(628.557 549.969)" fill="none" stroke="#0092f6" stroke-width="2.5" opacity="0.15"/>
    <circle id="Elipse_217" data-name="Elipse 217" cx="8.337" cy="8.337" r="8.337" transform="translate(620.22 541.632)" fill="#0092f6"/>
    <rect id="Retângulo_8901" data-name="Retângulo 8901" width="78.588" height="78.588" transform="translate(707.146 549.969)" fill="none" stroke="#0092f6" stroke-width="2.5" opacity="0.15"/>
    <circle id="Elipse_218" data-name="Elipse 218" cx="8.337" cy="8.337" r="8.337" transform="translate(698.809 541.632)" fill="#0092f6"/>
    <rect id="Retângulo_8902" data-name="Retângulo 8902" width="78.588" height="78.588" transform="translate(785.734 549.969)" fill="none" stroke="#0092f6" stroke-width="2.5" opacity="0.15"/>
    <circle id="Elipse_219" data-name="Elipse 219" cx="8.337" cy="8.337" r="8.337" transform="translate(777.397 541.632)" fill="#0092f6"/>
    <circle id="Elipse_260" data-name="Elipse 260" cx="8.337" cy="8.337" r="8.337" transform="translate(855.986 541.632)" fill="#0092f6"/>
    <rect id="Retângulo_8905" data-name="Retângulo 8905" width="78.588" height="78.588" transform="translate(157.027 628.557)" fill="none" stroke="#0092f6" stroke-width="2.5" opacity="0.15"/>
    <circle id="Elipse_222" data-name="Elipse 222" cx="8.337" cy="8.337" r="8.337" transform="translate(148.69 620.22)" fill="#0092f6"/>
    <rect id="Retângulo_8906" data-name="Retângulo 8906" width="78.588" height="78.588" transform="translate(235.615 628.557)" fill="none" stroke="#0092f6" stroke-width="2.5" opacity="0.15"/>
    <circle id="Elipse_223" data-name="Elipse 223" cx="8.337" cy="8.337" r="8.337" transform="translate(227.278 620.22)" fill="#0092f6"/>
    <rect id="Retângulo_8907" data-name="Retângulo 8907" width="78.588" height="78.588" transform="translate(314.204 628.557)" fill="none" stroke="#0092f6" stroke-width="2.5" opacity="0.15"/>
    <circle id="Elipse_224" data-name="Elipse 224" cx="8.337" cy="8.337" r="8.337" transform="translate(305.867 620.22)" fill="#0092f6"/>
    <rect id="Retângulo_8908" data-name="Retângulo 8908" width="78.588" height="78.588" transform="translate(392.792 628.557)" fill="none" stroke="#0092f6" stroke-width="2.5" opacity="0.15"/>
    <circle id="Elipse_225" data-name="Elipse 225" cx="8.337" cy="8.337" r="8.337" transform="translate(384.455 620.22)" fill="#0092f6"/>
    <rect id="Retângulo_8909" data-name="Retângulo 8909" width="78.588" height="78.588" transform="translate(471.381 628.557)" fill="none" stroke="#0092f6" stroke-width="2.5" opacity="0.15"/>
    <circle id="Elipse_226" data-name="Elipse 226" cx="8.337" cy="8.337" r="8.337" transform="translate(463.044 620.22)" fill="#0092f6"/>
    <rect id="Retângulo_8910" data-name="Retângulo 8910" width="78.588" height="78.588" transform="translate(549.969 628.557)" fill="none" stroke="#0092f6" stroke-width="2.5" opacity="0.15"/>
    <circle id="Elipse_227" data-name="Elipse 227" cx="8.337" cy="8.337" r="8.337" transform="translate(541.632 620.22)" fill="#0092f6"/>
    <rect id="Retângulo_8911" data-name="Retângulo 8911" width="78.588" height="78.588" transform="translate(628.557 628.557)" fill="none" stroke="#0092f6" stroke-width="2.5" opacity="0.15"/>
    <circle id="Elipse_228" data-name="Elipse 228" cx="8.337" cy="8.337" r="8.337" transform="translate(620.22 620.22)" fill="#0092f6"/>
    <rect id="Retângulo_8912" data-name="Retângulo 8912" width="78.588" height="78.588" transform="translate(707.146 628.557)" fill="none" stroke="#0092f6" stroke-width="2.5" opacity="0.15"/>
    <circle id="Elipse_229" data-name="Elipse 229" cx="8.337" cy="8.337" r="8.337" transform="translate(698.809 620.22)" fill="#0092f6"/>
    <rect id="Retângulo_8913" data-name="Retângulo 8913" width="78.588" height="78.588" transform="translate(785.734 628.557)" fill="none" stroke="#0092f6" stroke-width="2.5" opacity="0.15"/>
    <circle id="Elipse_230" data-name="Elipse 230" cx="8.337" cy="8.337" r="8.337" transform="translate(777.397 620.22)" fill="#0092f6"/>
    <circle id="Elipse_261" data-name="Elipse 261" cx="8.337" cy="8.337" r="8.337" transform="translate(855.986 620.22)" fill="#0092f6"/>
    <rect id="Retângulo_8916" data-name="Retângulo 8916" width="78.588" height="78.588" transform="translate(157.027 707.146)" fill="none" stroke="#0092f6" stroke-width="2.5" opacity="0.15"/>
    <circle id="Elipse_233" data-name="Elipse 233" cx="8.337" cy="8.337" r="8.337" transform="translate(148.69 698.809)" fill="#0092f6"/>
    <rect id="Retângulo_8917" data-name="Retângulo 8917" width="78.588" height="78.588" transform="translate(235.615 707.146)" fill="none" stroke="#0092f6" stroke-width="2.5" opacity="0.15"/>
    <circle id="Elipse_234" data-name="Elipse 234" cx="8.337" cy="8.337" r="8.337" transform="translate(227.278 698.809)" fill="#0092f6"/>
    <rect id="Retângulo_8918" data-name="Retângulo 8918" width="78.588" height="78.588" transform="translate(314.204 707.146)" fill="none" stroke="#0092f6" stroke-width="2.5" opacity="0.15"/>
    <circle id="Elipse_235" data-name="Elipse 235" cx="8.337" cy="8.337" r="8.337" transform="translate(305.867 698.809)" fill="#0092f6"/>
    <rect id="Retângulo_8919" data-name="Retângulo 8919" width="78.588" height="78.588" transform="translate(392.792 707.146)" fill="none" stroke="#0092f6" stroke-width="2.5" opacity="0.15"/>
    <circle id="Elipse_236" data-name="Elipse 236" cx="8.337" cy="8.337" r="8.337" transform="translate(384.455 698.809)" fill="#0092f6"/>
    <rect id="Retângulo_8920" data-name="Retângulo 8920" width="78.588" height="78.588" transform="translate(471.381 707.146)" fill="none" stroke="#0092f6" stroke-width="2.5" opacity="0.15"/>
    <circle id="Elipse_237" data-name="Elipse 237" cx="8.337" cy="8.337" r="8.337" transform="translate(463.044 698.809)" fill="#0092f6"/>
    <rect id="Retângulo_8921" data-name="Retângulo 8921" width="78.588" height="78.588" transform="translate(549.969 707.146)" fill="none" stroke="#0092f6" stroke-width="2.5" opacity="0.15"/>
    <circle id="Elipse_238" data-name="Elipse 238" cx="8.337" cy="8.337" r="8.337" transform="translate(541.632 698.809)" fill="#0092f6"/>
    <rect id="Retângulo_8922" data-name="Retângulo 8922" width="78.588" height="78.588" transform="translate(628.557 707.146)" fill="none" stroke="#0092f6" stroke-width="2.5" opacity="0.15"/>
    <circle id="Elipse_239" data-name="Elipse 239" cx="8.337" cy="8.337" r="8.337" transform="translate(620.22 698.809)" fill="#0092f6"/>
    <rect id="Retângulo_8923" data-name="Retângulo 8923" width="78.588" height="78.588" transform="translate(707.146 707.146)" fill="none" stroke="#0092f6" stroke-width="2.5" opacity="0.15"/>
    <circle id="Elipse_240" data-name="Elipse 240" cx="8.337" cy="8.337" r="8.337" transform="translate(698.809 698.809)" fill="#0092f6"/>
    <rect id="Retângulo_8924" data-name="Retângulo 8924" width="78.588" height="78.588" transform="translate(785.734 707.146)" fill="none" stroke="#0092f6" stroke-width="2.5" opacity="0.15"/>
    <circle id="Elipse_241" data-name="Elipse 241" cx="8.337" cy="8.337" r="8.337" transform="translate(777.397 698.809)" fill="#0092f6"/>
    <circle id="Elipse_262" data-name="Elipse 262" cx="8.337" cy="8.337" r="8.337" transform="translate(855.986 698.809)" fill="#0092f6"/>
    <rect id="Retângulo_8927" data-name="Retângulo 8927" width="78.588" height="78.588" transform="translate(157.027 785.734)" fill="none" stroke="#0092f6" stroke-width="2.5" opacity="0.15"/>
    <circle id="Elipse_244" data-name="Elipse 244" cx="8.337" cy="8.337" r="8.337" transform="translate(148.69 777.397)" fill="#0092f6"/>
    <circle id="Elipse_377" data-name="Elipse 377" cx="8.337" cy="8.337" r="8.337" transform="translate(148.69 855.985)" fill="#0092f6"/>
    <rect id="Retângulo_8928" data-name="Retângulo 8928" width="78.588" height="78.588" transform="translate(235.615 785.734)" fill="none" stroke="#0092f6" stroke-width="2.5" opacity="0.15"/>
    <circle id="Elipse_245" data-name="Elipse 245" cx="8.337" cy="8.337" r="8.337" transform="translate(227.278 777.397)" fill="#0092f6"/>
    <circle id="Elipse_378" data-name="Elipse 378" cx="8.337" cy="8.337" r="8.337" transform="translate(227.278 855.985)" fill="#0092f6"/>
    <rect id="Retângulo_8929" data-name="Retângulo 8929" width="78.588" height="78.588" transform="translate(314.204 785.734)" fill="none" stroke="#0092f6" stroke-width="2.5" opacity="0.15"/>
    <circle id="Elipse_246" data-name="Elipse 246" cx="8.337" cy="8.337" r="8.337" transform="translate(305.867 777.397)" fill="#0092f6"/>
    <circle id="Elipse_379" data-name="Elipse 379" cx="8.337" cy="8.337" r="8.337" transform="translate(305.867 855.985)" fill="#0092f6"/>
    <rect id="Retângulo_8930" data-name="Retângulo 8930" width="78.588" height="78.588" transform="translate(392.792 785.734)" fill="none" stroke="#0092f6" stroke-width="2.5" opacity="0.15"/>
    <circle id="Elipse_247" data-name="Elipse 247" cx="8.337" cy="8.337" r="8.337" transform="translate(384.455 777.397)" fill="#0092f6"/>
    <circle id="Elipse_380" data-name="Elipse 380" cx="8.337" cy="8.337" r="8.337" transform="translate(384.455 855.985)" fill="#0092f6"/>
    <rect id="Retângulo_8931" data-name="Retângulo 8931" width="78.588" height="78.588" transform="translate(471.381 785.734)" fill="none" stroke="#0092f6" stroke-width="2.5" opacity="0.15"/>
    <circle id="Elipse_248" data-name="Elipse 248" cx="8.337" cy="8.337" r="8.337" transform="translate(463.044 777.397)" fill="#0092f6"/>
    <circle id="Elipse_381" data-name="Elipse 381" cx="8.337" cy="8.337" r="8.337" transform="translate(463.044 855.985)" fill="#0092f6"/>
    <rect id="Retângulo_8932" data-name="Retângulo 8932" width="78.588" height="78.588" transform="translate(549.969 785.734)" fill="none" stroke="#0092f6" stroke-width="2.5" opacity="0.15"/>
    <circle id="Elipse_249" data-name="Elipse 249" cx="8.337" cy="8.337" r="8.337" transform="translate(541.632 777.397)" fill="#0092f6"/>
    <circle id="Elipse_382" data-name="Elipse 382" cx="8.337" cy="8.337" r="8.337" transform="translate(541.632 855.985)" fill="#0092f6"/>
    <rect id="Retângulo_8933" data-name="Retângulo 8933" width="78.588" height="78.588" transform="translate(628.557 785.734)" fill="none" stroke="#0092f6" stroke-width="2.5" opacity="0.15"/>
    <circle id="Elipse_250" data-name="Elipse 250" cx="8.337" cy="8.337" r="8.337" transform="translate(620.22 777.397)" fill="#0092f6"/>
    <circle id="Elipse_383" data-name="Elipse 383" cx="8.337" cy="8.337" r="8.337" transform="translate(620.22 855.985)" fill="#0092f6"/>
    <rect id="Retângulo_8934" data-name="Retângulo 8934" width="78.588" height="78.588" transform="translate(707.146 785.734)" fill="none" stroke="#0092f6" stroke-width="2.5" opacity="0.15"/>
    <circle id="Elipse_251" data-name="Elipse 251" cx="8.337" cy="8.337" r="8.337" transform="translate(698.809 777.397)" fill="#0092f6"/>
    <circle id="Elipse_384" data-name="Elipse 384" cx="8.337" cy="8.337" r="8.337" transform="translate(698.809 855.985)" fill="#0092f6"/>
    <rect id="Retângulo_8935" data-name="Retângulo 8935" width="78.588" height="78.588" transform="translate(785.734 785.734)" fill="none" stroke="#0092f6" stroke-width="2.5" opacity="0.15"/>
    <circle id="Elipse_252" data-name="Elipse 252" cx="8.337" cy="8.337" r="8.337" transform="translate(777.397 777.397)" fill="#0092f6"/>
    <circle id="Elipse_385" data-name="Elipse 385" cx="8.337" cy="8.337" r="8.337" transform="translate(777.397 855.985)" fill="#0092f6"/>
    <circle id="Elipse_263" data-name="Elipse 263" cx="8.337" cy="8.337" r="8.337" transform="translate(855.986 777.397)" fill="#0092f6"/>
    <circle id="Elipse_386" data-name="Elipse 386" cx="8.337" cy="8.337" r="8.337" transform="translate(855.986 855.985)" fill="#0092f6"/>
  </g>
</svg>
