<svg xmlns="http://www.w3.org/2000/svg" xmlns:xlink="http://www.w3.org/1999/xlink" width="1334" height="1000" viewBox="0 0 1334 1000">
  <defs>
    <clipPath id="clip-path">
      <rect id="Ret칙ngulo_9475" data-name="Ret칙ngulo 9475" width="1334" height="1000" transform="translate(-17382 -20158)" fill="#fff" stroke="#707070" stroke-width="1"/>
    </clipPath>
  </defs>
  <g id="Grupo_de_m치scara_12" data-name="Grupo de m치scara 12" transform="translate(17382 20158)" clip-path="url(#clip-path)">
    <g id="Grupo_3438" data-name="Grupo 3438" transform="translate(-17321.162 -20857.053)">
      <circle id="Elipse_1893" data-name="Elipse 1893" cx="755.263" cy="755.263" r="755.263" transform="matrix(-0.276, -0.961, 0.961, -0.276, 380.275, 1832.29)" fill="none" stroke="#00a8ff" stroke-linecap="round" stroke-dashoffset="25" stroke-width="11" stroke-dasharray="49 11" opacity="0.05"/>
      <circle id="Elipse_1894" data-name="Elipse 1894" cx="720.933" cy="720.933" r="720.933" transform="translate(313.311 62.938) rotate(10)" fill="none" stroke="#00a8ff" stroke-linecap="round" stroke-dashoffset="25" stroke-width="11" stroke-dasharray="12 13" opacity="0.1"/>
      <circle id="Elipse_1895" data-name="Elipse 1895" cx="686.602" cy="686.602" r="686.602" transform="translate(-60.944 746.208) rotate(-36)" fill="none" stroke="#00a8ff" stroke-linecap="round" stroke-dashoffset="25" stroke-width="10" stroke-dasharray="44 50" opacity="0.14"/>
      <circle id="Elipse_1896" data-name="Elipse 1896" cx="652.272" cy="652.272" r="652.272" transform="translate(245.83 245.834)" fill="none" stroke="#00a8ff" stroke-linecap="round" stroke-dashoffset="25" stroke-width="10" stroke-dasharray="37 19" opacity="0.19"/>
      <circle id="Elipse_1897" data-name="Elipse 1897" cx="617.942" cy="617.942" r="617.942" transform="matrix(0.966, -0.259, 0.259, 0.966, 141.282, 461.156)" fill="none" stroke="#00a8ff" stroke-linecap="round" stroke-dashoffset="25" stroke-width="10" stroke-dasharray="51 32" opacity="0.23"/>
      <circle id="Elipse_1898" data-name="Elipse 1898" cx="583.612" cy="583.612" r="583.612" transform="translate(1383.231 230.382) rotate(81)" fill="none" stroke="#00a8ff" stroke-linecap="round" stroke-dashoffset="25" stroke-width="10" stroke-dasharray="31 40" opacity="0.28"/>
      <circle id="Elipse_1899" data-name="Elipse 1899" cx="549.282" cy="549.282" r="549.282" transform="translate(1250.763 1590.241) rotate(-162)" fill="none" stroke="#00a8ff" stroke-linecap="round" stroke-dashoffset="25" stroke-width="9" stroke-dasharray="24 44" opacity="0.32"/>
      <circle id="Elipse_1900" data-name="Elipse 1900" cx="514.952" cy="514.952" r="514.952" transform="translate(649.026 1582.438) rotate(-115)" fill="none" stroke="#00a8ff" stroke-linecap="round" stroke-dashoffset="25" stroke-width="9" stroke-dasharray="13 34" opacity="0.37"/>
      <circle id="Elipse_1901" data-name="Elipse 1901" cx="480.622" cy="480.622" r="480.622" transform="translate(1426.33 1325.858) rotate(174)" fill="none" stroke="#00a8ff" stroke-linecap="round" stroke-dashoffset="25" stroke-width="9" stroke-dasharray="37 14" opacity="0.41"/>
      <circle id="Elipse_1902" data-name="Elipse 1902" cx="446.292" cy="446.292" r="446.292" transform="translate(509.528 400.754) rotate(7)" fill="none" stroke="#00a8ff" stroke-linecap="round" stroke-dashoffset="25" stroke-width="8" stroke-dasharray="17 45" opacity="0.46"/>
      <circle id="Elipse_1903" data-name="Elipse 1903" cx="411.961" cy="411.961" r="411.961" transform="translate(1344.401 1272.6) rotate(175)" fill="none" stroke="#00a8ff" stroke-linecap="round" stroke-dashoffset="25" stroke-width="8" stroke-dasharray="20 29" opacity="0.5"/>
      <path id="Caminho_9899" data-name="Caminho 9899" d="M377.631,0a381.325,381.325,0,0,1,55.431,4.039c182.193,26.713,322.2,183.8,322.2,373.592,0,208.56-169.071,377.631-377.631,377.631S0,586.191,0,377.631,169.071,0,377.631,0Z" transform="matrix(0.602, -0.799, 0.799, 0.602, 369.253, 972.432)" fill="none" stroke="#00a8ff" stroke-linecap="round" stroke-dashoffset="25" stroke-width="8" stroke-dasharray="51 18" opacity="0.55"/>
      <circle id="Elipse_1904" data-name="Elipse 1904" cx="343.301" cy="343.301" r="343.301" transform="translate(441.883 1064.158) rotate(-65)" fill="none" stroke="#00a8ff" stroke-linecap="round" stroke-dashoffset="25" stroke-width="8" stroke-dasharray="24 44" opacity="0.59"/>
      <circle id="Elipse_1905" data-name="Elipse 1905" cx="308.971" cy="308.971" r="308.971" transform="matrix(-0.208, -0.978, 0.978, -0.208, 660.124, 1264.564)" fill="none" stroke="#00a8ff" stroke-linecap="round" stroke-dashoffset="25" stroke-width="7" stroke-dasharray="17 40" opacity="0.64"/>
      <circle id="Elipse_1906" data-name="Elipse 1906" cx="274.641" cy="274.641" r="274.641" transform="matrix(0.208, 0.978, -0.978, 0.208, 1109.639, 572.366)" fill="none" stroke="#00a8ff" stroke-linecap="round" stroke-dashoffset="25" stroke-width="7" stroke-dasharray="18 21" opacity="0.68"/>
      <circle id="Elipse_1907" data-name="Elipse 1907" cx="240.311" cy="240.311" r="240.311" transform="translate(951.268 1233.769) rotate(-144)" fill="none" stroke="#00a8ff" stroke-linecap="round" stroke-dashoffset="25" stroke-width="7" stroke-dasharray="31 46" opacity="0.73"/>
      <circle id="Elipse_1908" data-name="Elipse 1908" cx="205.981" cy="205.981" r="205.981" transform="matrix(-0.515, -0.857, 0.857, -0.515, 827.631, 1180.752)" fill="none" stroke="#00a8ff" stroke-linecap="round" stroke-dashoffset="25" stroke-width="6" stroke-dasharray="24 32" opacity="0.77"/>
      <circle id="Elipse_1909" data-name="Elipse 1909" cx="171.651" cy="171.651" r="171.651" transform="translate(665.96 827.136) rotate(-28)" fill="none" stroke="#00a8ff" stroke-linecap="round" stroke-dashoffset="25" stroke-width="6" stroke-dasharray="31 50" opacity="0.82"/>
      <circle id="Elipse_1910" data-name="Elipse 1910" cx="137.32" cy="137.32" r="137.32" transform="translate(751.537 770.694) rotate(-4)" fill="none" stroke="#00a8ff" stroke-linecap="round" stroke-dashoffset="25" stroke-width="6" stroke-dasharray="49 39" opacity="0.86"/>
      <circle id="Elipse_1911" data-name="Elipse 1911" cx="102.99" cy="102.99" r="102.99" transform="translate(1040.57 928.39) rotate(147)" fill="none" stroke="#00a8ff" stroke-linecap="round" stroke-dashoffset="25" stroke-width="6" stroke-dasharray="27 35" opacity="0.91"/>
      <circle id="Elipse_1912" data-name="Elipse 1912" cx="68.66" cy="68.66" r="68.66" transform="matrix(-0.559, -0.829, 0.829, -0.559, 879.579, 993.423)" fill="none" stroke="#00a8ff" stroke-linecap="round" stroke-dashoffset="25" stroke-width="5" stroke-dasharray="46 51" opacity="0.95"/>
      <circle id="Elipse_1913" data-name="Elipse 1913" cx="34.33" cy="34.33" r="34.33" transform="matrix(-0.94, -0.342, 0.342, -0.94, 918.623, 942.11)" fill="none" stroke="#00a8ff" stroke-linecap="round" stroke-dashoffset="25" stroke-width="5" stroke-dasharray="47 14"/>
    </g>
  </g>
</svg>
