<svg xmlns="http://www.w3.org/2000/svg" viewBox="0 0 313.4 110.91"><defs><style>.cls-1{fill:#fff;}</style></defs><g id="Layer_3" data-name="Layer 3"><path class="cls-1" d="M34.81,78.89a1,1,0,0,0,1,.63h1.89s25.91,1,25.7-24.68l0-21.8a1,1,0,0,0-1-1H52.77a1,1,0,0,0-1,1l0,21.81c0,2.74-.4,6-1.81,8.32-2.13,3.15-5.23,5.65-12.2,6.33,0,0-1.26.09-4.88.06a1,1,0,0,0-1.05,1.4Z"/><path class="cls-1" d="M95.39,41.9h15a1,1,0,0,0,1-.66l3-7.83a1,1,0,0,0-1-1.4H94.06c-12.32,0-25.68,8.23-25.68,24.46s13.28,23,25.68,23h1.75a1,1,0,0,0,1-.66l3-7.92a1,1,0,0,0-1-1.4h-4C86.36,69.14,80,65,80,56.47,80,47.54,86.83,41.9,95.39,41.9Z"/><path class="cls-1" d="M128.93,36a5.85,5.85,0,0,0-5.44-3.71h-3.28a1,1,0,0,0-1,.66L101.77,77.81a1,1,0,0,0,1,1.4l9.2,0a1,1,0,0,0,1-.69l2.64-7.56a1,1,0,0,1,1-.69h14a1,1,0,0,1,1,.69l2.64,7.56a1,1,0,0,0,1,.69l9.2,0a1,1,0,0,0,1-1.4ZM123.69,61h-3.22a1,1,0,0,1-1-1.37l3-8.63a1,1,0,0,1,1.94,0l3,8.63a1,1,0,0,1-1,1.37Z"/><path class="cls-1" d="M221.12,36a5.84,5.84,0,0,0-5.43-3.71h-3.28a1,1,0,0,0-1,.66L194,77.81a1,1,0,0,0,1,1.4l9.2,0a1,1,0,0,0,1-.69l2.64-7.56a1,1,0,0,1,1-.69h14a1,1,0,0,1,1,.69l2.64,7.56a1,1,0,0,0,1,.69l9.2,0a1,1,0,0,0,1-1.4ZM215.88,61h-3.21a1,1,0,0,1-1-1.37l3-8.63a1,1,0,0,1,1.94,0l3,8.63a1,1,0,0,1-1,1.37Z"/><path class="cls-1" d="M183.18,32.31h-4.69a1,1,0,0,0-1,1V58.83a1,1,0,0,1-1.88.59l-17.35-24.8a5.4,5.4,0,0,0-4.43-2.31h-7.63a1,1,0,0,0-1,1V64.82a3.63,3.63,0,0,0,.25,1.31l3.3,8.46,1.55,4a1,1,0,0,0,1,.65h4.38a1,1,0,0,0,1-1V52.55a1,1,0,0,1,1.88-.59L175.87,76.8a5.45,5.45,0,0,0,4.36,2.31l7.65.1a1,1,0,0,0,1.05-1V38.05A5.75,5.75,0,0,0,183.18,32.31Z"/><path class="cls-1" d="M258.88,31.7h0c-11.47,0-22.64,9.13-22.7,23.91S247.65,79.52,259,79.52h0c11.48,0,22.64-9.12,22.7-23.91S270.23,31.7,258.88,31.7Zm11,27.44a11.16,11.16,0,0,1-21.79,0,16.36,16.36,0,0,1-.42-3.5h0a15.29,15.29,0,0,1,.42-3.52,11.16,11.16,0,0,1,21.79,0,15.76,15.76,0,0,1,.41,3.5h0A16,16,0,0,1,269.84,59.14Z"/></g></svg>