<svg id="__TEMP__SVG__" xmlns="http://www.w3.org/2000/svg" width="36" height="36" viewBox="0 0 36 36">
  <path id="Caminho_8253" data-name="Caminho 8253" d="M31.5,2.25H4.5A2.25,2.25,0,0,0,2.25,4.5v27A2.25,2.25,0,0,0,4.5,33.75h27a2.25,2.25,0,0,0,2.25-2.25V4.5A2.25,2.25,0,0,0,31.5,2.25ZM4.5,0A4.5,4.5,0,0,0,0,4.5v27A4.5,4.5,0,0,0,4.5,36h27A4.5,4.5,0,0,0,36,31.5V4.5A4.5,4.5,0,0,0,31.5,0Z" fill="#0092f6" fill-rule="evenodd"/>
  <path id="Caminho_8254" data-name="Caminho 8254" d="M10.454,17.2a1.125,1.125,0,0,1,1.593,0L18,23.159,23.954,17.2A1.126,1.126,0,1,1,25.547,18.8l-6.75,6.75a1.125,1.125,0,0,1-1.593,0l-6.75-6.75a1.125,1.125,0,0,1,0-1.593Z" fill="#0092f6" fill-rule="evenodd"/>
  <path id="Caminho_8255" data-name="Caminho 8255" d="M18,10.125a1.125,1.125,0,0,1,1.125,1.125V22.5a1.125,1.125,0,0,1-2.25,0V11.25A1.125,1.125,0,0,1,18,10.125Z" fill="#0092f6" fill-rule="evenodd"/>
</svg>
