<svg xmlns="http://www.w3.org/2000/svg" width="46" height="46" viewBox="0 0 46 46">
  <g id="Grupo_3436" data-name="Grupo 3436" transform="translate(21632 14072)">
    <rect id="Retângulo_9481" data-name="Retângulo 9481" width="46" height="46" rx="5" transform="translate(-21632 -14072)" fill="#0092f6"/>
    <path id="Icon_awesome-linkedin-in" data-name="Icon awesome-linkedin-in" d="M8.058,36H.595V11.965H8.058ZM4.323,8.687A4.343,4.343,0,1,1,8.645,4.323,4.359,4.359,0,0,1,4.323,8.687ZM35.993,36H28.545V24.3c0-2.788-.056-6.364-3.881-6.364-3.881,0-4.475,3.03-4.475,6.164V36H12.734V11.965h7.158v3.279H20a7.843,7.843,0,0,1,7.062-3.881C34.612,11.363,36,16.337,36,22.8V36Z" transform="translate(-21627 -14067)" fill="#fff"/>
  </g>
</svg>
