<svg xmlns="http://www.w3.org/2000/svg" width="46" height="46" viewBox="0 0 46 46">
  <g id="Grupo_3436" data-name="Grupo 3436" transform="translate(21632 14072)">
    <path id="Subtração_18" data-name="Subtração 18" d="M41,46H5a5.006,5.006,0,0,1-5-5V5A5.006,5.006,0,0,1,5,0H41a5.006,5.006,0,0,1,5,5V41A5.005,5.005,0,0,1,41,46ZM29.665,22.936c3.88,0,3.88,3.679,3.88,6.365V41H41V27.8c0-5.939-1.083-11.434-8.942-11.434A7.881,7.881,0,0,0,25,20.244h-.1V16.965H17.734V41h7.456V29.1C25.189,26.052,25.721,22.936,29.665,22.936ZM5.594,16.965V41h7.464V16.965ZM9.322,5a4.343,4.343,0,1,0,4.323,4.323A4.327,4.327,0,0,0,9.322,5Z" transform="translate(-21632 -14072)" fill="#0092f6"/>
  </g>
</svg>
